<?xml version="1.0" encoding="utf-8"?>
<!-- Svg Vector Icons : http://www.onlinewebfonts.com/icon -->
<!DOCTYPE svg PUBLIC "-//W3C//DTD SVG 1.1//EN" "http://www.w3.org/Graphics/SVG/1.1/DTD/svg11.dtd">
<svg version="1.1" xmlns="http://www.w3.org/2000/svg" xmlns:xlink="http://www.w3.org/1999/xlink" x="0px" y="0px" viewBox="0 0 1000 1000" enable-background="new 0 0 1000 1000" xml:space="preserve">
<metadata> Svg Vector Icons : http://www.onlinewebfonts.com/icon </metadata>
<g><g transform="translate(0.000000,511.000000) scale(0.100000,-0.100000)"><path d="M4062.2,3011.5c-626-32.5-1432-172.3-1824.4-315.9C1604.1,2465.9,1102.5,1952.8,677.5,1099C367.4,474.9,195.1-40.1,128.1-553.1c-130.2-980.2,201-1843.6,819.4-2134.6c509.2-241.2,1296.1-65.1,1935.5,434.6c180,139.8,455.6,423.1,568.6,585.8c72.7,101.5,97.6,120.6,292.9,216.3c442.2,220.2,802.1,308.2,1255.8,308.2c451.8,0,811.7-88.1,1254-308.2c189.5-93.8,218.2-114.9,287.2-210.6c195.3-273.8,574.3-620.3,874.9-798.3c819.4-482.4,1623.4-440.3,2061.8,111c541.8,679.6,562.8,1784.2,57.4,2984.6c-426.9,1016.6-913.2,1638.7-1520,1950.8c-252.7,128.3-480.5,193.3-1072.1,310.1c-492,95.7-727.5,111-1780.4,116.8C4626.9,3015.3,4131.1,3015.3,4062.2,3011.5z M6311.6,2374c438.4-49.8,1110.4-193.4,1326.7-285.2c528.4-222.1,1003.2-848.1,1387.9-1832.1c312.1-796.4,344.6-1514.3,90-2031.2c-180-365.6-440.3-474.8-880.6-371.4c-436.5,105.3-892.1,430.7-1221.4,878.7c-59.4,80.4-124.4,160.8-147.4,178c-74.7,65.1-616.4,321.6-813.6,386.7C5331.4-463.2,4669-463.2,3953-700.5c-202.9-67-742.8-323.5-819.4-388.6c-23-17.2-90-101.5-151.2-185.7c-143.6-197.2-403.9-449.9-591.5-580.1c-382.9-264.2-828.9-384.8-1112.3-302.5c-202.9,59.4-369.5,258.4-469,560.9c-212.5,633.7-80.4,1409,402,2389.2c336.9,685.4,716,1114.2,1148.6,1296.1c319.7,134,1062.5,269.9,1701.9,310.1C4303.4,2414.2,6133.6,2393.1,6311.6,2374z"/><path d="M6914.6,1606.3c-101.5-61.3-139.7-128.3-149.3-248.9c-5.7-86.1,0-116.8,38.3-170.4c95.7-141.7,222.1-183.8,371.4-126.4c220.2,84.2,256.5,390.5,63.2,528.4C7150.1,1650.3,7002.7,1658,6914.6,1606.3z"/><path d="M2632.1,1548.9c-68.9-28.7-82.3-82.3-82.3-342.7v-247l-269.9-7.7c-346.5-7.7-342.7-3.8-342.7-302.5c0-178,5.7-212.5,40.2-256.5c38.3-49.8,40.2-49.8,306.3-49.8h266.1V86.3c0-229.7,3.8-260.4,40.2-306.3c38.3-47.9,44-49.8,266.1-49.8s227.8,1.9,266.1,49.8c36.4,46,40.2,76.6,40.2,306.3v256.5h266.1c266.1,0,268,0,306.3,49.8c34.5,44,40.2,78.5,40.2,256.5c0,298.6,3.8,294.8-342.7,302.5l-269.9,7.7v254.6c0,344.6,0,342.7-281.4,348.4C2768,1566.1,2655.1,1558.5,2632.1,1548.9z"/><path d="M6269.5,934.4c-143.6-42.1-241.2-222.1-199.1-365.7c47.9-155.1,166.5-237.4,325.4-222.1c166.5,17.2,269.9,134,269.9,308.2c0,111-61.3,201-172.3,258.4C6403.5,959.2,6365.2,961.2,6269.5,934.4z"/><path d="M7630.6,919c-116.8-53.6-170.4-139.8-170.4-273.8c0-120.6,36.4-185.7,143.6-258.4c178-122.5,434.6,11.5,453.7,237.4c9.6,124.4-49.8,229.7-166.6,289.1C7787.6,965,7734,965,7630.6,919z"/><path d="M6899.3,208.8c-137.8-84.2-183.8-289.1-93.8-423.1c61.3-93.8,201-158.9,304.4-141.7c114.9,19.1,235.5,139.7,254.6,254.6c17.2,103.4-47.9,243.1-141.7,304.4C7138.6,260.5,6987.4,262.4,6899.3,208.8z"/></g></g>
</svg>